<?xml version="1.0" ?><!-- Uploaded to: SVG Repo, www.svgrepo.com, Generator: SVG Repo Mixer Tools -->
<svg width="800px" height="800px" viewBox="0 0 64 64" id="icons" xmlns="http://www.w3.org/2000/svg"><defs><style>.cls-1{fill:#231f20;}</style></defs><title/><path class="cls-1" d="M49.33,21H46V18a6,6,0,0,0-6-6H8a6,6,0,0,0-6,6V42a6,6,0,0,0,6,6h2.68a7,7,0,1,0,12.64,0H37.68a7,7,0,1,0,12.64,0H56a6,6,0,0,0,6-6V33C62,26.38,56.32,21,49.33,21ZM6,42V18a2,2,0,0,1,2-2H40a2,2,0,0,1,2,2V44H8A2,2,0,0,1,6,42Zm14,9a3,3,0,1,1-3-3A3,3,0,0,1,20,51Zm27,0a3,3,0,1,1-3-3A3,3,0,0,1,47,51Zm11-9a2,2,0,0,1-2,2H46V25h3.33C54.11,25,58,28.59,58,33Z"/></svg>